<?xml version="1.0" encoding="utf-8"?>
<!-- Generator: Adobe Illustrator 16.0.0, SVG Export Plug-In . SVG Version: 6.00 Build 0)  -->
<!DOCTYPE svg PUBLIC "-//W3C//DTD SVG 1.1//EN" "http://www.w3.org/Graphics/SVG/1.1/DTD/svg11.dtd" [
	<!ENTITY ns_extend "http://ns.adobe.com/Extensibility/1.0/">
	<!ENTITY ns_ai "http://ns.adobe.com/AdobeIllustrator/10.0/">
	<!ENTITY ns_graphs "http://ns.adobe.com/Graphs/1.0/">
	<!ENTITY ns_vars "http://ns.adobe.com/Variables/1.0/">
	<!ENTITY ns_imrep "http://ns.adobe.com/ImageReplacement/1.0/">
	<!ENTITY ns_sfw "http://ns.adobe.com/SaveForWeb/1.0/">
	<!ENTITY ns_custom "http://ns.adobe.com/GenericCustomNamespace/1.0/">
	<!ENTITY ns_adobe_xpath "http://ns.adobe.com/XPath/1.0/">
]>
<svg version="1.1" id="Шар_1" xmlns:x="&ns_extend;" xmlns:i="&ns_ai;" xmlns:graph="&ns_graphs;"
	 xmlns="http://www.w3.org/2000/svg" xmlns:xlink="http://www.w3.org/1999/xlink" x="0px" y="0px" width="118.634px"
	 height="123.814px" viewBox="0 0 118.634 123.814" enable-background="new 0 0 118.634 123.814" xml:space="preserve">
<metadata>
	<sfw  xmlns="&ns_sfw;">
		<slices></slices>
		<sliceSourceBounds  width="118.635" height="123.814" y="0" x="0" bottomLeftOrigin="true"></sliceSourceBounds>
	</sfw>
</metadata>
<g>
	<defs>
		<rect id="SVGID_1_" width="118.634" height="123.814"/>
	</defs>
	<clipPath id="SVGID_2_">
		<use xlink:href="#SVGID_1_"  overflow="visible"/>
	</clipPath>
	<path clip-path="url(#SVGID_2_)" fill="#828283" d="M97.959,23.768l-0.028,0.089l-0.037,0.084
		c-3.763,8.048-11.573,15.591-21.264,22.1c6.746-0.481,13.088-0.63,18.727-0.24c8.219-8.783,10.716-14.433,11.145-17.891
		c0.188-2.203-0.779-3.774-2.514-4.741c-1.386-0.545-3.207-0.826-5.704-0.664C98.182,22.918,98.086,23.33,97.959,23.768"/>
	<path clip-path="url(#SVGID_2_)" fill="#828283" d="M115.709,74.385c1.351-2.436,2.091-4.643,1.482-5.786
		c-0.093-0.128-0.219-0.231-0.334-0.348c-4.212,6.79-11.4,13.448-20.159,19.431c2.225,0.5,4.168,1.184,5.697,2.105
		C108.242,84.484,113.054,79.179,115.709,74.385"/>
	<path clip-path="url(#SVGID_2_)" fill="#828283" d="M69.036,2.789c-0.547-1.455-2.071-2.204-3.66-2.663
		c-6.522-0.016-15.013,2.553-28.658,11.476c11.739-2.328,22.156-3.994,31.147-4.483C69.158,4.795,69.286,3.459,69.036,2.789"/>
	<path clip-path="url(#SVGID_2_)" fill="#828283" d="M55.03,123.814c7.877-0.484,33.735-5.278,48.676-21.822
		c13.344-14.777,13.7-26.711,14.083-30.057C112.737,86.703,84.926,107.708,55.03,123.814 M14.818,107.091
		c30.251,7.241,89.705-15.276,102.716-42.454c1.126-3.426,1.464-4.461,0.657-11.059c-1.057-6.31-1.097-6.553-2.135-10.048
		c-2.137-6.191-2.222-6.435-3.863-9.78c-1.09-1.992-2.555-4.648-3.763-6.571l-1.596-2.328c0.709,1.359,0.611,1.619,0.83,3.205
		C108.756,35.936,79.336,75.048,14.818,107.091 M0,63.913c20.585,3.706,82.675-10.191,96.831-40.475
		c2.604-8.94-1.02-11.079-10.711-16.801c-5.396-2.674-5.719-2.839-9.284-4.107C71.383,0.843,70.938,0.705,67.16,0l0.058,0.011
		c6.589,1.746,2.868,10.02-12.051,23.527C21.247,54.246,0,63.913,0,63.913"/>
</g>
</svg>
