<?xml version="1.0" encoding="utf-8"?>
<!-- Generator: Adobe Illustrator 16.0.0, SVG Export Plug-In . SVG Version: 6.00 Build 0)  -->
<!DOCTYPE svg PUBLIC "-//W3C//DTD SVG 1.1//EN" "http://www.w3.org/Graphics/SVG/1.1/DTD/svg11.dtd" [
	<!ENTITY ns_extend "http://ns.adobe.com/Extensibility/1.0/">
	<!ENTITY ns_ai "http://ns.adobe.com/AdobeIllustrator/10.0/">
	<!ENTITY ns_graphs "http://ns.adobe.com/Graphs/1.0/">
	<!ENTITY ns_vars "http://ns.adobe.com/Variables/1.0/">
	<!ENTITY ns_imrep "http://ns.adobe.com/ImageReplacement/1.0/">
	<!ENTITY ns_sfw "http://ns.adobe.com/SaveForWeb/1.0/">
	<!ENTITY ns_custom "http://ns.adobe.com/GenericCustomNamespace/1.0/">
	<!ENTITY ns_adobe_xpath "http://ns.adobe.com/XPath/1.0/">
]>
<svg version="1.1" id="Шар_1" xmlns:x="&ns_extend;" xmlns:i="&ns_ai;" xmlns:graph="&ns_graphs;"
	 xmlns="http://www.w3.org/2000/svg" xmlns:xlink="http://www.w3.org/1999/xlink" x="0px" y="0px" width="386.047px"
	 height="123.814px" viewBox="0 0 386.047 123.814" enable-background="new 0 0 386.047 123.814" xml:space="preserve">
<metadata>
	<sfw  xmlns="&ns_sfw;">
		<slices></slices>
		<sliceSourceBounds  height="123.814" width="386.047" x="0" y="0" bottomLeftOrigin="true"></sliceSourceBounds>
	</sfw>
</metadata>
<g>
	<defs>
		<rect id="SVGID_1_" width="386.047" height="123.814"/>
	</defs>
	<clipPath id="SVGID_2_">
		<use xlink:href="#SVGID_1_"  overflow="visible"/>
	</clipPath>
	<path clip-path="url(#SVGID_2_)" fill="#D29A00" d="M97.959,23.767l-0.028,0.089l-0.037,0.084
		c-3.763,8.048-11.574,15.591-21.264,22.1c6.746-0.48,13.088-0.63,18.726-0.24c8.219-8.783,10.716-14.433,11.145-17.89
		c0.188-2.204-0.779-3.776-2.514-4.743c-1.385-0.544-3.207-0.826-5.704-0.664C98.182,22.918,98.085,23.329,97.959,23.767"/>
	<path clip-path="url(#SVGID_2_)" fill="#D29A00" d="M115.708,74.385c1.351-2.437,2.091-4.644,1.483-5.786
		c-0.093-0.128-0.219-0.232-0.334-0.348c-4.212,6.79-11.4,13.447-20.159,19.431c2.224,0.5,4.168,1.183,5.697,2.105
		C108.243,84.484,113.054,79.179,115.708,74.385"/>
	<path clip-path="url(#SVGID_2_)" fill="#D29A00" d="M69.036,2.789c-0.546-1.455-2.071-2.204-3.66-2.664
		c-6.522-0.016-15.013,2.553-28.658,11.477c11.739-2.329,22.156-3.995,31.148-4.484C69.159,4.794,69.286,3.459,69.036,2.789"/>
	<path clip-path="url(#SVGID_2_)" fill="#D29A00" d="M55.03,123.814c7.877-0.484,33.735-5.278,48.676-21.822
		c13.344-14.777,13.7-26.711,14.083-30.058C112.737,86.703,84.926,107.708,55.03,123.814 M14.818,107.091
		c30.251,7.241,89.703-15.276,102.716-42.454c1.126-3.427,1.464-4.461,0.657-11.06c-1.056-6.31-1.096-6.553-2.134-10.048
		c-2.138-6.19-2.222-6.434-3.864-9.779c-1.089-1.993-2.554-4.648-3.762-6.571l-1.596-2.329c0.709,1.36,0.611,1.62,0.83,3.205
		C108.756,35.935,79.335,75.048,14.818,107.091 M0,63.913c20.585,3.706,82.675-10.192,96.831-40.476
		c2.605-8.939-1.019-11.078-10.711-16.8c-5.396-2.674-5.719-2.84-9.285-4.108C71.383,0.842,70.938,0.704,67.16,0l0.058,0.011
		c6.589,1.745,2.868,10.019-12.051,23.526C21.247,54.245,0,63.913,0,63.913"/>
	<path clip-path="url(#SVGID_2_)" fill="#0D479B" d="M208.117,47.044v32.689c-4.557,1.331-9.108,2.291-13.657,2.884
		c-4.549,0.591-9.595,0.889-15.14,0.889c-5.873,0-11.325-0.777-16.36-2.324c-5.035-1.548-9.447-3.876-13.242-6.979
		c-3.796-3.107-6.75-6.987-8.866-11.64c-2.117-4.655-3.175-9.988-3.175-16.004c0-5.659,1.089-10.69,3.271-15.092
		c2.182-4.404,5.19-8.076,9.024-11.02c3.835-2.943,8.271-5.157,13.306-6.64c5.036-1.485,10.383-2.227,16.042-2.227
		c10.086,0,18.752,0.861,26,2.579v18.731c-2.01-1.169-4.654-2.121-7.93-2.86c-3.273-0.738-6.746-1.104-10.409-1.104
		c-4.443,0-8.319,0.735-11.627,2.213c-3.308,1.474-5.866,3.668-7.674,6.578c-1.809,2.911-2.712,6.418-2.712,10.52
		c0,3.339,0.49,6.365,1.472,9.073c0.98,2.708,2.56,4.86,4.742,6.458c2.182,1.596,4.959,2.394,8.331,2.394
		c2.725,0,4.622-0.193,5.692-0.583V47.044H208.117z"/>
	<polygon clip-path="url(#SVGID_2_)" fill="#0D479B" points="217.191,82.314 217.191,12.773 256.645,12.773 265.719,50.839 
		265.91,50.839 274.863,12.773 314.219,12.773 314.219,82.314 290.309,82.314 289.92,27.709 289.723,27.709 276.08,82.314 
		253.846,82.314 240.59,27.709 240.203,27.709 239.91,82.314 	"/>
	<path clip-path="url(#SVGID_2_)" fill="#0D479B" d="M381.57,13.964v17.828c-6.633-2.316-13.508-3.476-20.625-3.476
		c-3.244,0-5.963,0.274-8.162,0.825c-2.197,0.553-3.295,1.802-3.295,3.748c0,1.88,1.844,3.262,5.531,4.145
		c3.691,0.885,8.119,1.934,13.281,3.151c5.166,1.216,9.416,3.338,12.746,6.359c3.334,3.025,5,7.579,5,13.658
		c0,5.804-1.65,10.443-4.951,13.915c-3.299,3.47-7.49,5.901-12.576,7.296c-5.082,1.395-10.527,2.094-16.332,2.094
		c-3.242,0-6.479-0.114-9.705-0.343c-3.227-0.227-6.316-0.57-9.266-1.032c-2.953-0.462-6.197-1.1-9.73-1.909V62.196
		c3.566,1.479,7.455,2.609,11.662,3.394c4.209,0.787,8.293,1.179,12.248,1.179c3.469,0,6.33-0.389,8.586-1.166
		c2.252-0.779,3.381-1.987,3.381-3.623c0-1.963-1.918-3.422-5.752-4.379c-3.836-0.955-8.268-2.056-13.293-3.297
		c-5.027-1.238-9.207-3.384-12.541-6.433c-3.33-3.049-4.996-7.636-4.996-13.768c0-5.933,1.762-10.571,5.289-13.912
		c3.527-3.34,7.926-5.61,13.195-6.811c5.271-1.2,11.035-1.801,17.297-1.801C366.115,11.579,373.787,12.375,381.57,13.964"/>
	<path clip-path="url(#SVGID_2_)" fill="#0D479B" d="M152.738,110.195v-5.884h-3.888v-1.443h5.548v8.335
		c-1.576,0.688-3.313,1.032-5.214,1.032c-1.306,0-2.483-0.206-3.531-0.618c-1.048-0.413-1.939-1.004-2.674-1.771
		c-0.735-0.769-1.295-1.688-1.677-2.757c-0.384-1.07-0.576-2.244-0.576-3.528c0-1.262,0.198-2.429,0.59-3.495
		c0.393-1.067,0.959-1.986,1.698-2.759c0.739-0.772,1.632-1.369,2.681-1.787c1.047-0.418,2.21-0.627,3.489-0.627
		c0.762,0,1.572,0.065,2.428,0.196c0.857,0.132,1.545,0.329,2.065,0.596l-0.194,1.536c-1.059-0.591-2.493-0.886-4.299-0.886
		c-1.404,0-2.621,0.31-3.651,0.927c-1.03,0.618-1.813,1.474-2.346,2.569c-0.534,1.094-0.801,2.338-0.801,3.729
		c0,1.416,0.262,2.671,0.783,3.763c0.522,1.093,1.296,1.945,2.32,2.555c1.024,0.61,2.256,0.914,3.695,0.914
		C150.897,110.792,152.082,110.592,152.738,110.195"/>
	<rect x="161.316" y="93.93" clip-path="url(#SVGID_2_)" fill="#0D479B" width="1.514" height="18.018"/>
	<path clip-path="url(#SVGID_2_)" fill="#0D479B" d="M168.586,105.825c0-1.158,0.207-2.224,0.622-3.199
		c0.414-0.976,1.054-1.756,1.918-2.34c0.865-0.585,1.925-0.877,3.181-0.877s2.316,0.292,3.181,0.877
		c0.864,0.584,1.504,1.364,1.919,2.34c0.414,0.976,0.622,2.041,0.622,3.199c0,0.845-0.116,1.656-0.347,2.434
		c-0.23,0.778-0.58,1.465-1.047,2.056c-0.468,0.592-1.067,1.062-1.796,1.404c-0.729,0.345-1.574,0.517-2.532,0.517
		c-1.256,0-2.316-0.292-3.181-0.877c-0.864-0.584-1.504-1.363-1.918-2.337C168.793,108.047,168.586,106.982,168.586,105.825
		 M170.247,105.825c0,0.949,0.157,1.813,0.472,2.595c0.314,0.78,0.779,1.396,1.396,1.844c0.615,0.452,1.347,0.675,2.196,0.675
		c0.852,0,1.585-0.223,2.196-0.675c0.612-0.448,1.075-1.063,1.39-1.844c0.315-0.781,0.473-1.646,0.473-2.595
		c0-0.953-0.158-1.822-0.473-2.601c-0.315-0.78-0.778-1.396-1.39-1.845c-0.611-0.45-1.344-0.676-2.196-0.676
		c-0.849,0-1.581,0.226-2.196,0.676c-0.617,0.449-1.082,1.064-1.396,1.845C170.404,104.002,170.247,104.872,170.247,105.825"/>
	<path clip-path="url(#SVGID_2_)" fill="#0D479B" d="M185.621,111.948V93.929h1.513v7.83h0.048c0.09-0.258,0.294-0.572,0.61-0.944
		c0.317-0.371,0.748-0.698,1.296-0.982c0.548-0.283,1.187-0.424,1.917-0.424c1.155,0,2.108,0.268,2.864,0.806
		c0.753,0.538,1.306,1.287,1.656,2.246c0.349,0.96,0.524,2.082,0.524,3.364c0,1.224-0.188,2.322-0.568,3.293
		c-0.379,0.973-0.948,1.735-1.706,2.288c-0.759,0.554-1.682,0.829-2.77,0.829c-1.763,0-3.037-0.744-3.823-2.234h-0.048v1.947
		H185.621z M194.391,105.825c0-0.888-0.108-1.717-0.325-2.484c-0.218-0.769-0.596-1.399-1.136-1.895
		c-0.539-0.494-1.26-0.742-2.164-0.742c-0.859,0-1.562,0.256-2.105,0.77c-0.543,0.512-0.934,1.158-1.17,1.938
		c-0.237,0.779-0.356,1.584-0.356,2.413c0,0.81,0.124,1.606,0.37,2.393c0.247,0.785,0.64,1.437,1.183,1.95
		c0.541,0.516,1.234,0.771,2.078,0.771c0.904,0,1.625-0.247,2.164-0.743c0.541-0.497,0.918-1.127,1.136-1.893
		C194.282,107.539,194.391,106.712,194.391,105.825"/>
	<path clip-path="url(#SVGID_2_)" fill="#0D479B" d="M209.045,111.948v-1.971h-0.047c-0.316,0.7-0.848,1.252-1.59,1.654
		c-0.744,0.402-1.514,0.604-2.307,0.604c-1.061,0-1.892-0.194-2.492-0.583s-1.009-0.844-1.224-1.365
		c-0.216-0.519-0.323-1.023-0.323-1.512c0-0.966,0.229-1.746,0.688-2.34c0.457-0.595,1.055-1.031,1.789-1.309
		c0.736-0.277,1.51-0.455,2.318-0.534c0.812-0.078,1.729-0.116,2.754-0.116h0.287v-0.623c0-1.074-0.213-1.868-0.643-2.381
		c-0.428-0.513-1.143-0.769-2.145-0.769c-1.352,0-2.553,0.337-3.601,1.01v-1.467c0.481-0.235,1.067-0.432,1.757-0.595
		s1.305-0.243,1.844-0.243c1.01,0,1.83,0.157,2.465,0.475c0.634,0.316,1.098,0.81,1.393,1.478c0.295,0.669,0.443,1.538,0.443,2.609
		v5.409c0,1.153,0.041,2.009,0.123,2.568H209.045z M208.898,106.516v-0.744h-0.434c-1.712,0-3.098,0.191-4.156,0.575
		c-1.056,0.383-1.586,1.177-1.586,2.381c0,0.762,0.237,1.322,0.709,1.677c0.473,0.355,1.088,0.533,1.842,0.533
		c1.541,0,2.531-0.447,2.969-1.345S208.898,107.67,208.898,106.516"/>
	<rect x="216.902" y="93.93" clip-path="url(#SVGID_2_)" fill="#0D479B" width="1.512" height="18.018"/>
	<path clip-path="url(#SVGID_2_)" fill="#0D479B" d="M237.299,102.916l4.416,4.927c0.963-1.381,1.443-3.079,1.443-5.097h1.441
		c0,1.099-0.158,2.176-0.477,3.235c-0.32,1.058-0.785,1.996-1.399,2.817l2.862,3.103h-2.119l-1.777-1.877
		c-1.311,1.475-3.008,2.211-5.091,2.211c-0.987,0-1.897-0.17-2.733-0.51c-0.836-0.341-1.506-0.863-2.012-1.572
		c-0.508-0.707-0.762-1.575-0.762-2.604c0-2.229,1.324-3.854,3.973-4.873c-0.732-0.843-1.279-1.557-1.643-2.146
		c-0.363-0.588-0.545-1.252-0.545-1.99c0-0.763,0.213-1.42,0.645-1.972c0.43-0.551,0.99-0.969,1.684-1.252
		c0.691-0.283,1.42-0.425,2.188-0.425c0.684,0,1.328,0.128,1.932,0.384c0.606,0.256,1.09,0.646,1.459,1.173
		c0.367,0.526,0.551,1.161,0.551,1.903c0,0.81-0.182,1.49-0.543,2.042c-0.36,0.552-0.805,0.994-1.328,1.329
		C238.938,102.055,238.217,102.455,237.299,102.916 M240.775,108.994l-4.873-5.38c-0.869,0.34-1.609,0.854-2.227,1.539
		c-0.615,0.686-0.924,1.461-0.924,2.326c0,1.086,0.381,1.936,1.139,2.545c0.758,0.61,1.678,0.914,2.756,0.914
		c0.756,0,1.514-0.179,2.275-0.535C239.686,110.045,240.303,109.575,240.775,108.994 M234.535,98.639c0,0.586,0.16,1.13,0.479,1.628
		c0.317,0.5,0.791,1.092,1.416,1.78c0.696-0.327,1.257-0.619,1.683-0.874c0.426-0.254,0.793-0.591,1.1-1.011
		c0.307-0.421,0.461-0.938,0.461-1.547c0-0.778-0.215-1.376-0.645-1.797c-0.432-0.421-1.008-0.631-1.73-0.631
		c-0.764,0-1.414,0.213-1.953,0.643C234.806,97.258,234.535,97.862,234.535,98.639"/>
	<rect x="257.33" y="95.179" clip-path="url(#SVGID_2_)" fill="#0D479B" width="1.66" height="16.768"/>
	<path clip-path="url(#SVGID_2_)" fill="#0D479B" d="M265.604,111.948v-9.367c0-1.267-0.033-2.229-0.1-2.886h1.461v2.188h0.047
		c0.325-0.716,0.783-1.307,1.375-1.774c0.594-0.467,1.457-0.7,2.59-0.7c1.436,0,2.49,0.424,3.166,1.275
		c0.678,0.851,1.016,1.993,1.016,3.433v7.831h-1.514V104.5c0-2.531-0.969-3.796-2.908-3.796c-0.861,0-1.564,0.221-2.109,0.66
		c-0.545,0.438-0.934,0.998-1.165,1.672c-0.233,0.674-0.351,1.387-0.351,2.138v6.774H265.604z"/>
	<path clip-path="url(#SVGID_2_)" fill="#0D479B" d="M281.842,111.948v-9.367c0-1.267-0.033-2.229-0.1-2.886h1.461v2.188h0.047
		c0.324-0.716,0.783-1.307,1.375-1.774c0.594-0.467,1.455-0.7,2.59-0.7c1.436,0,2.49,0.424,3.166,1.275
		c0.678,0.851,1.016,1.993,1.016,3.433v7.831h-1.514V104.5c0-2.531-0.969-3.796-2.908-3.796c-0.861,0-1.564,0.221-2.109,0.66
		c-0.546,0.438-0.934,0.998-1.168,1.672c-0.232,0.674-0.348,1.387-0.348,2.138v6.774H281.842z"/>
	<path clip-path="url(#SVGID_2_)" fill="#0D479B" d="M297.129,105.825c0-1.158,0.207-2.224,0.623-3.199
		c0.414-0.976,1.053-1.756,1.918-2.34c0.865-0.585,1.926-0.877,3.182-0.877s2.316,0.292,3.18,0.877
		c0.865,0.584,1.504,1.364,1.92,2.34c0.414,0.976,0.621,2.041,0.621,3.199c0,0.845-0.115,1.656-0.345,2.434
		c-0.231,0.778-0.581,1.465-1.05,2.056c-0.467,0.592-1.064,1.062-1.795,1.404c-0.73,0.345-1.574,0.517-2.531,0.517
		c-1.256,0-2.316-0.292-3.182-0.877c-0.865-0.584-1.504-1.363-1.918-2.337C297.336,108.047,297.129,106.982,297.129,105.825
		 M298.789,105.825c0,0.949,0.158,1.813,0.473,2.595c0.314,0.78,0.779,1.396,1.396,1.844c0.615,0.452,1.348,0.675,2.195,0.675
		c0.854,0,1.586-0.223,2.197-0.675c0.611-0.448,1.074-1.063,1.391-1.844c0.314-0.781,0.471-1.646,0.471-2.595
		c0-0.953-0.156-1.822-0.471-2.601c-0.316-0.78-0.779-1.396-1.391-1.845c-0.611-0.45-1.344-0.676-2.197-0.676
		c-0.848,0-1.58,0.226-2.195,0.676c-0.617,0.449-1.082,1.064-1.396,1.845C298.947,104.002,298.789,104.872,298.789,105.825"/>
	<polygon clip-path="url(#SVGID_2_)" fill="#0D479B" points="322.863,99.695 318.564,111.948 316.781,111.948 312.629,99.695 
		314.283,99.695 317.672,110.288 317.719,110.288 321.273,99.695 	"/>
	<path clip-path="url(#SVGID_2_)" fill="#0D479B" d="M334.902,111.948v-1.971h-0.047c-0.318,0.7-0.848,1.252-1.592,1.654
		c-0.742,0.402-1.512,0.604-2.307,0.604c-1.061,0-1.891-0.194-2.492-0.583c-0.6-0.389-1.008-0.844-1.223-1.365
		c-0.215-0.519-0.322-1.023-0.322-1.512c0-0.966,0.229-1.746,0.686-2.34c0.457-0.595,1.055-1.031,1.791-1.309
		s1.508-0.455,2.318-0.534c0.811-0.078,1.727-0.116,2.752-0.116h0.287v-0.623c0-1.074-0.213-1.868-0.641-2.381
		c-0.43-0.513-1.143-0.769-2.145-0.769c-1.354,0-2.553,0.337-3.602,1.01v-1.467c0.48-0.235,1.066-0.432,1.756-0.595
		c0.691-0.163,1.307-0.243,1.846-0.243c1.008,0,1.83,0.157,2.463,0.475c0.634,0.316,1.1,0.81,1.395,1.478
		c0.295,0.669,0.441,1.538,0.441,2.609v5.409c0,1.153,0.041,2.009,0.125,2.568H334.902z M334.754,106.516v-0.744h-0.434
		c-1.711,0-3.098,0.191-4.154,0.575c-1.06,0.383-1.586,1.177-1.586,2.381c0,0.762,0.236,1.322,0.709,1.677
		c0.473,0.355,1.086,0.533,1.842,0.533c1.541,0,2.529-0.447,2.967-1.345S334.754,107.67,334.754,106.516"/>
	<path clip-path="url(#SVGID_2_)" fill="#0D479B" d="M348.043,99.695v1.296h-2.787v7.931c0,1.345,0.545,2.017,1.631,2.017
		c0.424,0,0.889-0.096,1.396-0.286l0.094,1.249c-0.566,0.224-1.182,0.334-1.848,0.334c-0.84,0-1.463-0.173-1.871-0.52
		c-0.406-0.346-0.66-0.796-0.762-1.351c-0.102-0.557-0.152-1.293-0.152-2.212v-7.162h-2.404v-1.296h2.404v-2.956l1.512-0.527v3.483
		H348.043z"/>
	<path clip-path="url(#SVGID_2_)" fill="#0D479B" d="M355.154,96.428h-1.515v-2.018h1.515V96.428z M353.641,99.695h1.515v12.253
		h-1.515V99.695z"/>
	<polygon clip-path="url(#SVGID_2_)" fill="#0D479B" points="370.406,99.695 366.107,111.948 364.324,111.948 360.172,99.695 
		361.826,99.695 365.217,110.288 365.264,110.288 368.816,99.695 	"/>
	<path clip-path="url(#SVGID_2_)" fill="#0D479B" d="M383.619,110.024v1.537c-1.096,0.449-2.281,0.674-3.555,0.674
		c-1.924,0-3.334-0.578-4.229-1.733c-0.896-1.155-1.344-2.715-1.344-4.677c0-1.232,0.215-2.337,0.645-3.313
		c0.432-0.978,1.037-1.739,1.818-2.286c0.783-0.545,1.684-0.816,2.705-0.816c1.634,0,2.854,0.566,3.662,1.699
		c0.806,1.135,1.211,2.594,1.211,4.377v0.768h-8.381c0,0.884,0.154,1.68,0.467,2.392c0.311,0.709,0.77,1.269,1.377,1.679
		c0.609,0.41,1.338,0.615,2.191,0.615c0.531,0,1.145-0.093,1.84-0.28C382.721,110.469,383.25,110.258,383.619,110.024
		 M376.152,104.956h6.721c0-0.754-0.107-1.453-0.322-2.096c-0.215-0.644-0.559-1.163-1.029-1.561
		c-0.471-0.396-1.061-0.596-1.769-0.596c-0.712,0-1.341,0.21-1.888,0.625c-0.549,0.416-0.971,0.954-1.268,1.613
		C376.301,103.6,376.152,104.272,376.152,104.956"/>
</g>
</svg>
