<?xml version="1.0" encoding="utf-8"?>
<!-- Generator: Adobe Illustrator 16.0.0, SVG Export Plug-In . SVG Version: 6.00 Build 0)  -->
<!DOCTYPE svg PUBLIC "-//W3C//DTD SVG 1.1//EN" "http://www.w3.org/Graphics/SVG/1.1/DTD/svg11.dtd" [
	<!ENTITY ns_extend "http://ns.adobe.com/Extensibility/1.0/">
	<!ENTITY ns_ai "http://ns.adobe.com/AdobeIllustrator/10.0/">
	<!ENTITY ns_graphs "http://ns.adobe.com/Graphs/1.0/">
	<!ENTITY ns_vars "http://ns.adobe.com/Variables/1.0/">
	<!ENTITY ns_imrep "http://ns.adobe.com/ImageReplacement/1.0/">
	<!ENTITY ns_sfw "http://ns.adobe.com/SaveForWeb/1.0/">
	<!ENTITY ns_custom "http://ns.adobe.com/GenericCustomNamespace/1.0/">
	<!ENTITY ns_adobe_xpath "http://ns.adobe.com/XPath/1.0/">
]>
<svg version="1.1" id="Шар_1" xmlns:x="&ns_extend;" xmlns:i="&ns_ai;" xmlns:graph="&ns_graphs;"
	 xmlns="http://www.w3.org/2000/svg" xmlns:xlink="http://www.w3.org/1999/xlink" x="0px" y="0px" width="9.906px" height="11.79px"
	 viewBox="0 0 9.906 11.79" enable-background="new 0 0 9.906 11.79" xml:space="preserve">
<metadata>
	<sfw  xmlns="&ns_sfw;">
		<slices></slices>
		<sliceSourceBounds  width="340.887" height="423.944" bottomLeftOrigin="true" x="0" y="-412.154"></sliceSourceBounds>
	</sfw>
</metadata>
<text transform="matrix(1 0 0 1 297.6406 420.9443)" font-family="'MyriadPro-Regular'" font-size="12">#082B65</text>
<g>
	<g>
		<path fill="#082B65" d="M5.484,8.843c-2.438,0-4.421-1.984-4.421-4.422C1.063,1.983,3.047,0,5.484,0
			c2.438,0,4.422,1.983,4.422,4.421C9.906,6.859,7.923,8.843,5.484,8.843z M5.484,0.714c-2.044,0-3.707,1.663-3.707,3.707
			c0,2.044,1.663,3.707,3.707,3.707s3.707-1.663,3.707-3.707C9.191,2.377,7.528,0.714,5.484,0.714z"/>
	</g>
	<g>
		
			<rect x="1.064" y="8.115" transform="matrix(0.8068 0.5908 -0.5908 0.8068 6.2013 1.0983)" fill="#082B65" width="0.714" height="3.835"/>
	</g>
</g>
</svg>
